# xmcd
#
# Track frame offsets: 
#        150
#        17620
#        29164
#        54809
#        75650
#        97247
#        122198
#        140992
#        154937
#        179050
#        198995
#        217531
#        237916
#        240331
#
# Disc length: 3434 seconds
#
# Revision: 0
# Processed by: cddbd v1.5.2PL0 Copyright (c) Steve Scherf et al.
# Submitted via: ExactAudioCopy v1.0b3
#
DISCID=c00d680e
DTITLE=Buddy Greene - A few more years
DYEAR=2009
DGENRE=Gospel
TTITLE0=Twelve Gates To The City
TTITLE1=Headed For The Promised Land
TTITLE2=A Few More Years
TTITLE3=How Can I Keep From Singing
TTITLE4=Denomination Blues
TTITLE5=Hard Times
TTITLE6=Shall We Gather At The River
TTITLE7=The God Who Rescued Me
TTITLE8=All My Tears
TTITLE9=What Are They Doing In Heaven Today?
TTITLE10=O, The Precious Blood Of Jesus
TTITLE11=Where Cross the Crowded Ways Of Life
TTITLE12=Twelve Gates (reprise)
TTITLE13=In The New Jerusalem
EXTD=
EXTT0=
EXTT1=
EXTT2=
EXTT3=
EXTT4=
EXTT5=
EXTT6=
EXTT7=
EXTT8=
EXTT9=
EXTT10=
EXTT11=
EXTT12=
EXTT13=
PLAYORDER=
